<svg id="Path" xmlns="http://www.w3.org/2000/svg" viewBox="0 0 216.26 708.84"><defs><style>.cls-1,.cls-2{fill:none;stroke-miterlimit:10;}.cls-1{stroke:#000;stroke-width:3px;}.cls-2{stroke:#f66;}</style></defs><title>B1_L4</title><path class="cls-1" d="M274.7,761.07v25.25H178.14V80.48h95.26v24.2h89.27V370.93H391.4V492.08h-29V760.27Z" transform="translate(-176.64 -78.98)"/><rect class="cls-2" x="1.5" y="1.5" width="95.26" height="24.2"/><rect class="cls-2" x="1.5" y="681.5" width="95.26" height="25.84"/><rect class="cls-2" x="1.5" y="25.7" width="64.42" height="88.93"/><rect class="cls-2" x="1.5" y="114.63" width="64.42" height="88.93"/><rect class="cls-2" x="1.5" y="270.42" width="64.42" height="22.08"/><rect class="cls-2" x="91.86" y="25.7" width="94.17" height="88.93"/><rect class="cls-2" x="91.86" y="114.63" width="94.17" height="47.61"/><rect class="cls-2" x="91.86" y="162.25" width="94.17" height="47.61"/><rect class="cls-2" x="91.86" y="209.86" width="94.17" height="82.69"/><rect class="cls-2" x="1.5" y="292.55" width="64.42" height="37.98"/><rect class="cls-2" x="1.5" y="330.53" width="49.24" height="43.96"/><rect class="cls-2" x="1.5" y="374.49" width="49.24" height="40.98"/><rect class="cls-2" x="1.5" y="415.47" width="49.24" height="40.98"/><rect class="cls-2" x="1.5" y="456.44" width="49.24" height="47.17"/><rect class="cls-2" x="1.5" y="503.61" width="49.24" height="42.59"/><rect class="cls-2" x="1.5" y="546.2" width="49.24" height="46.46"/><rect class="cls-2" x="1.5" y="592.66" width="49.24" height="42.66"/><rect class="cls-2" x="1.5" y="635.31" width="49.24" height="46.18"/><rect class="cls-2" x="140.88" y="413.64" width="45.05" height="42.8"/><rect class="cls-2" x="140.88" y="456.44" width="45.05" height="45.05"/><rect class="cls-2" x="140.88" y="501.49" width="45.05" height="42.63"/><rect class="cls-2" x="140.88" y="544.29" width="45.05" height="45.05"/><rect class="cls-2" x="140.88" y="589.17" width="45.05" height="45.05"/><rect class="cls-2" x="140.88" y="634.05" width="45.05" height="47.45"/><rect class="cls-2" x="69.33" y="499.08" width="52.13" height="40.46"/><rect class="cls-2" x="69.33" y="539.55" width="52.13" height="40.46"/><rect class="cls-2" x="69.33" y="580.01" width="52.13" height="72.6"/><rect class="cls-2" x="65.92" y="292.49" width="25.94" height="69.58"/><polygon class="cls-2" points="138.64 292.49 214.76 292.49 214.76 362.07 158.87 362.07 158.87 320 138.64 320 138.64 292.49"/><rect class="cls-2" x="91.86" y="292.49" width="46.89" height="27.51"/><rect class="cls-2" x="91.86" y="362.07" width="123.01" height="51.57"/></svg>