<svg id="Path" xmlns="http://www.w3.org/2000/svg" viewBox="0 0 216.26 708.84"><defs><style>.cls-1,.cls-2{fill:none;stroke-miterlimit:10;}.cls-1{stroke:#000;stroke-width:3px;}.cls-2{stroke:#f66;}</style></defs><title>B1_L5</title><path class="cls-1" d="M311,723.67v25.25H214.49V43.08h95.26v24.2H399V333.54h28.73V454.68h-29V722.87Z" transform="translate(-212.99 -41.58)"/><rect class="cls-2" x="1.5" y="1.5" width="95.26" height="24.2"/><rect class="cls-2" x="1.5" y="682.02" width="96.24" height="25.32"/><polygon class="cls-2" points="138.64 291.98 214.76 291.98 214.76 361.56 158.87 361.56 158.87 319.49 138.64 319.49 138.64 291.98"/><rect class="cls-2" x="91.75" y="291.98" width="46.89" height="27.51"/><rect class="cls-2" x="91.75" y="361.56" width="123.01" height="51.57"/><rect class="cls-2" x="1.5" y="409.23" width="63.95" height="90.01"/><rect class="cls-2" x="1.5" y="499.23" width="63.95" height="90.01"/><rect class="cls-2" x="1.5" y="589.24" width="63.95" height="92.78"/><polygon class="cls-2" points="185.72 413.11 91.75 413.11 91.75 525.26 125.2 525.26 125.2 544.24 185.72 544.24 185.72 413.11"/><polygon class="cls-2" points="185.72 544.24 125.2 544.24 125.2 562.03 91.75 562.03 91.75 681.72 185.72 681.72 185.72 544.24"/><rect class="cls-2" x="91.75" y="525.26" width="33.45" height="36.77"/><rect class="cls-2" x="1.5" y="387.35" width="63.95" height="21.88"/><rect class="cls-2" x="25.83" y="342.04" width="39.62" height="45.31"/><polygon class="cls-2" points="1.5 387.35 1.5 294.43 65.45 294.43 65.45 342.04 25.83 342.04 25.83 387.35 1.5 387.35"/><rect class="cls-2" x="91.75" y="162.23" width="94.28" height="129.73"/><rect class="cls-2" x="91.75" y="25.7" width="94.28" height="136.53"/><rect class="cls-2" x="1.4" y="162.23" width="64.15" height="132.2"/><rect class="cls-2" x="1.4" y="66.75" width="64.15" height="95.48"/><rect class="cls-2" x="1.4" y="25.7" width="64.15" height="41.05"/></svg>