<svg id="Path" xmlns="http://www.w3.org/2000/svg" viewBox="0 0 234.76 708.84"><defs><style>.cls-1,.cls-2{fill:none;stroke-miterlimit:10;}.cls-1{stroke:#000;stroke-width:3px;}.cls-2{stroke:#f66;}</style></defs><title>B1_L3</title><path class="cls-1" d="M278.43,758.63v25.25H181.87V487H170.76V464.83h-7.39V393.56h7.39V373.5h11.11V78h95.26v24.2H366.4V368.49h28.73V489.64h-29V757.83Z" transform="translate(-161.87 -76.54)"/><rect class="cls-2" x="20" y="1.5" width="95.26" height="24.2"/><rect class="cls-2" x="20" y="681.51" width="96.24" height="25.83"/><rect class="cls-2" x="20" y="25.7" width="184.53" height="266.25"/><rect class="cls-2" x="110.25" y="361.53" width="123.01" height="51.57"/><rect class="cls-2" x="157.14" y="413.1" width="47.08" height="42.19"/><rect class="cls-2" x="157.14" y="455.3" width="47.08" height="45.13"/><rect class="cls-2" x="157.14" y="500.43" width="47.08" height="44.08"/><rect class="cls-2" x="157.14" y="544.51" width="47.08" height="44.08"/><rect class="cls-2" x="157.14" y="588.59" width="47.08" height="92.91"/><polygon class="cls-2" points="98.97 681.51 98.97 544.51 60.01 544.51 60.01 500.43 20 500.43 20 681.51 98.97 681.51"/><polygon class="cls-2" points="20 500.43 20 410.46 45.72 410.46 59.48 419.7 59.48 500.43 20 500.43"/><polygon class="cls-2" points="27.22 410.46 27.22 316.84 1.5 316.84 1.5 388.29 8.89 388.29 8.89 410.46 27.22 410.46"/><rect class="cls-2" x="110.25" y="291.96" width="46.89" height="27.51"/><polygon class="cls-2" points="157.14 291.96 233.26 291.96 233.26 361.53 177.37 361.53 177.37 319.46 157.14 319.46 157.14 291.96"/><polygon class="cls-2" points="110.25 291.96 69.11 291.96 69.11 347.36 84.69 361.53 110.25 361.53 110.25 291.96"/></svg>