<svg id="Path" xmlns="http://www.w3.org/2000/svg" viewBox="0 0 236.28 562.51"><defs><style>.cls-1,.cls-2{fill:none;stroke-miterlimit:10;}.cls-1{stroke:#000;stroke-width:3px;}.cls-2{stroke:#f66;}</style></defs><title>B2_L3</title><path class="cls-1" d="M408,144.56V592.34H300.75v48.26H274.83v29.5H174.72V110.59H302.53v34H408ZM300.75,592.34v-94H408M302.53,144.56V284.48h10.75v-70H408M189.77,366.18h-15v61h15v-61" transform="translate(-173.22 -109.09)"/><polygon class="cls-2" points="1.5 35.46 1.5 175.38 103.17 175.38 103.17 165.69 129.31 165.69 129.31 35.46 1.5 35.46"/><rect class="cls-2" x="101.6" y="458.35" width="25.93" height="73.01"/><rect class="cls-2" x="1.5" y="354.59" width="100.1" height="176.77"/><rect class="cls-2" x="1.5" y="318.14" width="38.81" height="36.46"/><polygon class="cls-2" points="101.6 354.59 101.6 309.96 54.35 309.96 54.35 282.38 16.55 282.38 16.55 318.14 40.31 318.14 40.31 354.59 101.6 354.59"/><rect class="cls-2" x="54.35" y="282.38" width="47.25" height="27.58"/><rect class="cls-2" x="1.5" y="175.38" width="50.8" height="81.71"/><rect class="cls-2" x="52.45" y="175.38" width="50.72" height="72.94"/><rect class="cls-2" x="140.06" y="105.42" width="94.72" height="69.96"/><rect class="cls-2" x="140.06" y="175.38" width="35.67" height="72.94"/><polygon class="cls-2" points="222.46 175.38 222.46 201.85 212.4 201.85 212.4 248.32 175.73 248.32 175.73 175.38 222.46 175.38"/><polygon class="cls-2" points="140.06 389.24 223.07 389.24 223.07 362.33 212.44 362.33 212.44 318.49 140.06 318.49 140.06 389.24"/><rect class="cls-2" x="140.06" y="318.48" width="35.55" height="35.55"/><rect class="cls-2" x="140.06" y="354.03" width="35.55" height="35.2"/><polygon class="cls-2" points="212.44 354.03 186.59 354.03 186.59 365.14 175.61 365.14 175.61 389.24 223.07 389.24 223.07 362.33 212.44 362.33 212.44 354.03"/><rect class="cls-2" x="140.06" y="248.32" width="72.38" height="70.16"/><rect class="cls-2" x="1.5" y="35.46" width="39.01" height="33.5"/><rect class="cls-2" x="1.5" y="68.96" width="39.01" height="35.91"/><polygon class="cls-2" points="1.5 104.87 51.3 104.87 51.3 127.46 40.51 127.46 40.51 140.4 1.5 140.4 1.5 104.87"/><rect class="cls-2" x="1.5" y="140.4" width="50.8" height="34.98"/><rect class="cls-2" x="52.3" y="140.4" width="50.87" height="34.98"/><polygon class="cls-2" points="40.51 57.39 55.78 57.39 55.78 68.96 91.35 68.96 91.35 35.46 40.51 35.46 40.51 57.39"/><rect class="cls-2" x="91.35" y="35.46" width="37.96" height="33.5"/></svg>