<svg id="Path" xmlns="http://www.w3.org/2000/svg" viewBox="0 0 236.28 562.51"><defs><style>.cls-1,.cls-2{fill:none;stroke-miterlimit:10;}.cls-1{stroke:#000;stroke-width:3px;}.cls-2{stroke:#f66;}</style></defs><title>B2_L5</title><path class="cls-1" d="M408,147.56V595.34H300.75v48.26H274.83v29.5H174.72V113.59H302.53v34H408Z" transform="translate(-173.22 -112.09)"/><line class="cls-1" x1="129.31" y1="35.46" x2="127.52" y2="483.25"/><rect class="cls-2" x="1.5" y="1.5" width="127.81" height="33.96"/><rect class="cls-2" x="1.5" y="35.46" width="127.81" height="137.37"/><rect class="cls-2" x="1.5" y="172.84" width="52.85" height="81.71"/><rect class="cls-2" x="1.5" y="281.26" width="52.85" height="35.97"/><rect class="cls-2" x="54.35" y="281.26" width="47.25" height="27.58"/><rect class="cls-2" x="54.35" y="308.84" width="47.25" height="15.45"/><polygon class="cls-2" points="101.6 531.52 101.6 324.29 54.35 324.29 54.35 317.22 1.5 317.22 1.5 531.52 101.6 531.52"/><rect class="cls-2" x="101.6" y="458.51" width="25.93" height="73.01"/><rect class="cls-2" x="54.35" y="172.84" width="51.36" height="78.42"/></svg>