<svg id="Path" xmlns="http://www.w3.org/2000/svg" viewBox="0 0 236.28 562.51"><defs><style>.cls-1,.cls-2{fill:none;stroke-miterlimit:10;}.cls-1{stroke:#000;stroke-width:3px;}.cls-2{stroke:#f66;}</style></defs><title>B2_L1</title><path class="cls-1" d="M406.42,144.56V592.34H299.17v48.26H273.25v29.5H173.14V110.59H301v34H406.42Z" transform="translate(-171.64 -109.09)"/><rect class="cls-2" x="101.56" y="458.38" width="25.93" height="73.01"/><rect class="cls-2" x="1.5" y="389.24" width="100.06" height="105.65"/><polygon class="cls-2" points="101.56 389.24 101.56 335.04 36.61 335.04 36.61 316.1 1.5 316.1 1.5 389.24 101.56 389.24"/><polygon class="cls-2" points="101.56 335.04 101.56 310.18 42.95 310.18 36.82 316.31 36.82 335.04 101.56 335.04"/><rect class="cls-2" x="54.31" y="282.6" width="47.25" height="27.58"/><rect class="cls-2" x="52.58" y="174.79" width="50.72" height="72.94"/><rect class="cls-2" x="1.5" y="174.79" width="50.8" height="81.71"/><polygon class="cls-2" points="103.3 174.79 103.3 115.36 26.9 115.36 26.9 143.93 1.5 143.93 1.5 174.79 103.3 174.79"/><polygon class="cls-2" points="103.3 115.36 103.3 31.78 1.5 31.78 1.5 143.93 26.9 143.93 26.9 115.36 103.3 115.36"/><rect class="cls-2" x="213.88" y="103.67" width="20.9" height="66.17"/><rect class="cls-2" x="179.27" y="57.94" width="34.61" height="45.73"/><rect class="cls-2" x="141.61" y="57.94" width="37.66" height="45.73"/><polygon class="cls-2" points="213.88 103.67 213.88 177.8 222.72 177.8 222.72 247.73 141.61 247.73 141.61 103.67 213.88 103.67"/><rect class="cls-2" x="141.61" y="247.73" width="81.11" height="70.14"/><rect class="cls-2" x="141.61" y="317.87" width="31.9" height="45.74"/><polygon class="cls-2" points="222.72 317.87 173.51 317.87 173.51 363.61 141.61 363.61 141.61 435.55 212.18 435.55 212.18 387.44 222.72 387.44 222.72 317.87"/><rect class="cls-2" x="141.61" y="435.55" width="70.57" height="24.85"/></svg>