<svg id="Path" xmlns="http://www.w3.org/2000/svg" viewBox="0 0 261.28 562.51"><defs><style>.cls-1,.cls-2{fill:none;stroke-miterlimit:10;}.cls-1{stroke:#000;stroke-width:3px;}.cls-2{stroke:#f66;}</style></defs><title>B2_L2</title><path class="cls-1" d="M303.53,146.56H409V357h25v74H409V594.34H301.75v48.26H275.83v29.5H175.72V112.59H303.53v34Zm105.47,0H303.53V215H409V146.56Zm0,143.31H387.56V357H409M396.73,500.61V472.76h-9.17V439.84H372.18v39.55H313.94v19.38H301.75v71H409V500.61H396.73V472.76h-9.17V431H409M301.75,569.74v24.61" transform="translate(-174.22 -111.09)"/><rect class="cls-2" x="101.6" y="458.64" width="25.93" height="73.01"/><rect class="cls-2" x="1.5" y="458.64" width="100.1" height="73.01"/><rect class="cls-2" x="1.5" y="423.67" width="50.05" height="34.97"/><polygon class="cls-2" points="127.53 458.64 127.53 387.68 139.72 387.68 139.72 318.37 103.86 318.37 103.86 326.67 51.55 326.67 51.55 246.12 1.5 246.12 1.5 271.01 39.9 271.01 39.9 315.69 1.5 315.69 1.5 423.67 51.55 423.67 51.55 458.64 127.53 458.64"/><rect class="cls-2" x="51.55" y="310.07" width="52.31" height="16.59"/><rect class="cls-2" x="1.5" y="119.01" width="50.05" height="127.11"/><rect class="cls-2" x="51.55" y="282.49" width="52.31" height="27.58"/><rect class="cls-2" x="51.55" y="175.87" width="52.31" height="72.94"/><polyline class="cls-2" points="91.02 103.94 91.02 69.7 63.82 69.7 63.82 119.01 51.55 119.01 51.55 175.87 103.86 175.87 103.86 194.59 139.99 194.59 139.99 177.61 129.31 177.61 129.31 103.94 91.02 103.94"/><rect class="cls-2" x="1.5" y="69.7" width="62.32" height="49.32"/><rect class="cls-2" x="1.5" y="35.11" width="89.52" height="34.58"/><rect class="cls-2" x="1.5" y="1.5" width="127.81" height="33.61"/><rect class="cls-2" x="91.02" y="35.46" width="38.3" height="68.48"/><rect class="cls-2" x="129.31" y="103.94" width="37.42" height="37.42"/><rect class="cls-2" x="197.36" y="103.94" width="37.42" height="37.42"/><rect class="cls-2" x="197.36" y="141.36" width="37.42" height="37.42"/><polygon class="cls-2" points="166.73 103.94 166.73 141.36 129.31 141.36 129.31 177.61 139.99 177.61 139.99 194.59 213.34 194.59 213.34 178.78 197.36 178.78 197.36 103.94 166.73 103.94"/><rect class="cls-2" x="213.34" y="245.91" width="46.44" height="74.33"/><rect class="cls-2" x="139.72" y="246.12" width="33.86" height="72.25"/></svg>