<svg xmlns="http://www.w3.org/2000/svg" viewBox="0 0 778.88 328.62">
  <title>f4</title>
  <g id="base">
    <polygon points="2.5 2.5 776.38 2.5 776.38 181.28 729.4 181.28 729.4 326.12 110.05 326.12 110.05 179.19 42.92 179.19 42.92 143.18 2.5 143.18 2.5 2.5" style="fill: #bfbfc1;stroke: #bfbfc1;stroke-miterlimit: 10;stroke-width: 5px"/>
  </g>
  <g id="b2_floor4">
    <rect x="43.41" y="2.2" width="198.61" height="138.46" style="fill: #eaeaea;stroke: #bfbfc1;stroke-miterlimit: 10;stroke-width: 3px"/>
    <rect x="634.13" y="2.2" width="95.28" height="176.78" style="fill: #eaeaea;stroke: #bfbfc1;stroke-miterlimit: 10;stroke-width: 3px"/>
    <rect x="539.69" y="2.2" width="94.44" height="140.78" style="fill: #eaeaea;stroke: #bfbfc1;stroke-miterlimit: 10;stroke-width: 3px"/>
    <rect x="426.68" y="2.2" width="113.01" height="61.53" style="fill: #eaeaea;stroke: #bfbfc1;stroke-miterlimit: 10;stroke-width: 3px"/>
    <rect x="351.29" y="75.3" width="38.15" height="65.36" style="fill: #eaeaea;stroke: #bfbfc1;stroke-miterlimit: 10;stroke-width: 3px"/>
    <polygon points="242.03 2.2 389.44 2.2 389.44 75.3 351.29 75.3 351.29 140.66 242.03 140.66 242.03 2.2" style="fill: #eaeaea;stroke: #bfbfc1;stroke-miterlimit: 10;stroke-width: 3px"/>
    <g>
      <g>
        <rect x="433.35" y="70.13" width="5.86" height="33.33" style="fill: #eaeaea;stroke: #eaeaea;stroke-miterlimit: 10"/>
        <rect x="443.35" y="70.13" width="5.86" height="33.33" style="fill: #eaeaea;stroke: #eaeaea;stroke-miterlimit: 10"/>
        <rect x="452.78" y="70.13" width="5.86" height="33.33" style="fill: #eaeaea;stroke: #eaeaea;stroke-miterlimit: 10"/>
        <rect x="462.78" y="70.13" width="5.86" height="33.33" style="fill: #eaeaea;stroke: #eaeaea;stroke-miterlimit: 10"/>
      </g>
      <polygon points="508.49 106.8 508.49 126.75 461.43 106.8 508.49 106.8" style="fill: #eaeaea;stroke: #bfbfc1;stroke-miterlimit: 10;stroke-width: 3px"/>
      <g>
        <rect x="473.2" y="70.13" width="5.86" height="33.33" style="fill: #eaeaea;stroke: #eaeaea;stroke-miterlimit: 10"/>
        <rect x="483.2" y="70.13" width="5.86" height="33.33" style="fill: #eaeaea;stroke: #eaeaea;stroke-miterlimit: 10"/>
        <rect x="492.63" y="70.13" width="5.86" height="33.33" style="fill: #eaeaea;stroke: #eaeaea;stroke-miterlimit: 10"/>
        <rect x="502.63" y="70.13" width="5.86" height="33.33" style="fill: #eaeaea;stroke: #eaeaea;stroke-miterlimit: 10"/>
      </g>
    </g>
  </g>
</svg>
