<svg xmlns="http://www.w3.org/2000/svg" viewBox="0 0 778.88 328.62">
  <title>f6</title>
  <g id="base">
    <polygon points="2.5 2.5 776.38 2.5 776.38 181.28 729.4 181.28 729.4 326.12 110.05 326.12 110.05 179.19 42.92 179.19 42.92 143.18 2.5 143.18 2.5 2.5" style="fill: #bfbfc1;stroke: #bfbfc1;stroke-miterlimit: 10;stroke-width: 5px"/>
  </g>
  <g id="b2_floor6">
    <rect x="538.52" y="2.5" width="192.26" height="139.92" style="fill: #eaeaea;stroke: #bfbfc1;stroke-miterlimit: 10;stroke-width: 3px"/>
    <g>
      <g>
        <rect x="433.35" y="70.13" width="5.86" height="33.33" style="fill: #eaeaea;stroke: #eaeaea;stroke-miterlimit: 10"/>
        <rect x="443.35" y="70.13" width="5.86" height="33.33" style="fill: #eaeaea;stroke: #eaeaea;stroke-miterlimit: 10"/>
        <rect x="452.78" y="70.13" width="5.86" height="33.33" style="fill: #eaeaea;stroke: #eaeaea;stroke-miterlimit: 10"/>
        <rect x="462.78" y="70.13" width="5.86" height="33.33" style="fill: #eaeaea;stroke: #eaeaea;stroke-miterlimit: 10"/>
      </g>
      <polygon points="508.49 106.8 508.49 126.75 461.43 106.8 508.49 106.8" style="fill: #eaeaea;stroke: #bfbfc1;stroke-miterlimit: 10;stroke-width: 3px"/>
      <g>
        <rect x="473.2" y="70.13" width="5.86" height="33.33" style="fill: #eaeaea;stroke: #eaeaea;stroke-miterlimit: 10"/>
        <rect x="483.2" y="70.13" width="5.86" height="33.33" style="fill: #eaeaea;stroke: #eaeaea;stroke-miterlimit: 10"/>
        <rect x="492.63" y="70.13" width="5.86" height="33.33" style="fill: #eaeaea;stroke: #eaeaea;stroke-miterlimit: 10"/>
        <rect x="502.63" y="70.13" width="5.86" height="33.33" style="fill: #eaeaea;stroke: #eaeaea;stroke-miterlimit: 10"/>
      </g>
    </g>
    <rect x="354.67" y="76.31" width="38.52" height="65.99" style="fill: #eaeaea;stroke: #bfbfc1;stroke-miterlimit: 10;stroke-width: 3px"/>
    <rect x="426.68" y="2.2" width="113.01" height="61.53" style="fill: #eaeaea;stroke: #bfbfc1;stroke-miterlimit: 10;stroke-width: 3px"/>
    <rect x="191.05" y="34.13" width="147.68" height="107.08" style="fill: #eaeaea;stroke: #bfbfc1;stroke-miterlimit: 10;stroke-width: 3px"/>
    <rect x="43.37" y="2.5" width="147.68" height="138.71" style="fill: #eaeaea;stroke: #bfbfc1;stroke-miterlimit: 10;stroke-width: 3px"/>
  </g>
</svg>
